<svg xmlns="http://www.w3.org/2000/svg" viewBox="0 0 512 512">
    <path fill="#014548"
          d="M0 305v60a55 55 0 0055 55h30a15 15 0 0015-15V250H55a55 55 0 00-55 55zM351 295v-80a35 35 0 00-35-35H196a35 35 0 00-35 35v80a35 35 0 0035 35h34.6l55.8 46.5A15 15 0 00311 365v-35h5a35 35 0 0035-35zm-75-25h-40a15 15 0 010-30h40a15 15 0 010 30zM201 482a30 30 0 0030 30h50a30 30 0 100-60h-50a30 30 0 00-30 30z"/>
    <path fill="#014548"
          d="M422 450v3a15 15 0 01-15 15h-67.7a59.9 59.9 0 01-.5 30H407a45 45 0 0045-45v-3zM457 250h-45v155a15 15 0 0015 15h30a55 55 0 0055-55v-60a55 55 0 00-55-55z"/>
    <path fill="#014548"
          d="M408.7 63.3C368 22.5 313.7 0 256 0S144 22.5 103.3 63.3 40 158.3 40 216v4h60v-4c0-86 70-156 156-156s156 70 156 156v4h60v-4c0-57.7-22.5-112-63.3-152.7z"/>
</svg>