<svg xmlns="http://www.w3.org/2000/svg" viewBox="0 0 900 900">
    <path fill="#014548"
          d="M884-40h-25v8c0 8 0 9-3 13l-6 6c-4 2-5 2-32 2h-28l-6-5-5-6v-18H131v9c0 9-1 12-8 17l-3 3H92c-27 0-28 0-32-2l-6-6c-3-4-3-5-3-13v-8H0v985h52v-8c0-7 0-8 3-12 6-8 7-8 37-8h27l4 3 6 6c3 4 3 5 3 12v7h647v-7l1-10 11-10 29-1h27l4 3c6 5 8 8 8 17v8h50V-40h-25zm-28 141l-6 6-4 3h-55l-4-3c-8-5-8-7-8-27 0-16 0-17 2-20l6-6 3-2h57l4 3c8 6 8 7 8 26 0 16 0 16-3 20zm1 127l-7 6-4 3h-55l-4-3c-7-5-8-7-8-27 0-16 0-17 2-20l6-6 3-2h58l3 3c8 6 8 7 8 26 0 16 0 16-2 20zm0 121l-5 6-4 4h-58l-3-2-6-6c-2-3-2-4-2-20 0-20 1-21 8-27l4-3h55l4 3 6 6c3 3 3 4 3 20 0 12 0 17-2 19zm-1 125l-6 6c-4 2-5 2-31 2-30 0-30 0-36-7l-4-4v-36l5-6 6-5h28c32 0 32 0 38 8l3 4v34l-3 4zm0 124l-6 6c-4 2-5 2-31 2-30 0-30 0-36-7l-4-4v-36l5-6 6-5h28c27 0 28 0 32 2l6 6 3 4v34l-3 4zm1 123c0 2-3 4-5 6l-4 4h-58l-3-2-6-6c-2-3-2-4-2-20 0-20 1-21 8-27l4-3h55l4 3 6 6c3 3 3 3 3 20 0 12 0 17-2 19zm0 121c0 2-3 4-5 6l-4 4h-58l-3-2-6-6c-2-3-2-4-2-20 0-20 1-22 8-27l4-3h55l4 3 6 6c3 3 3 4 3 20l-1 19h-1zM129 101l-6 6-4 3H64l-4-3-6-6c-3-4-3-5-3-21V64l3-4c6-8 5-8 37-8 27 0 28 0 32 2l5 6c3 3 3 4 3 21 0 16 0 17-2 20zm0 127l-6 6-4 3H64l-4-3-6-6c-3-4-3-5-3-21v-16l3-4c6-8 5-8 37-8 27 0 28 0 32 2l5 6c3 3 3 4 3 21 0 16 0 17-2 20zm-1 123l-5 6c-4 2-5 2-32 2-32 0-31 0-37-8l-3-4v-16c0-16 0-17 3-21l6-6 4-3h27c31 0 31 0 37 8l3 4v17c0 17 0 18-2 21h-1zm-1 124c-6 7-6 7-36 7H64l-4-3-6-6c-3-4-3-4-3-20 0-18 1-21 8-26l4-3h57l3 2 6 6c2 3 2 4 2 21v18l-4 4zm0 124c-6 7-6 7-36 7-26 0-27 0-31-2l-6-6-3-4v-17c0-18 1-21 8-26l4-3h56l4 3c8 5 8 6 8 26v18l-4 4zm2 124l-6 6-3 2H92c-32 0-32 0-38-8l-3-4v-16c0-16 0-17 3-20 1-3 4-6 6-7l4-3h27c30 0 30 0 36 7l4 4v18c0 17 0 18-2 21zm-1 121l-5 6c-4 2-5 2-32 2H62l-4-4c-7-5-7-7-7-25 0-15 0-16 3-20l6-6 4-3h27c30 0 31 0 37 8l3 3v18c0 17 0 18-3 21z"/>
</svg>
