<svg xmlns="http://www.w3.org/2000/svg" xml:space="preserve" width="1000" height="1000"><path d="M992 334.4 608.12 225.52l-61-217.5a7.92 7.92 0 0 0-9.77-5.47L8 152.66a7.9 7.9 0 0 0-5.45 9.74l181.72 647.86a7.92 7.92 0 0 0 9.76 5.47l90.47-25.65-13.33 47.52a7.9 7.9 0 0 0 5.45 9.73l529.35 150.12a7.88 7.88 0 0 0 9.77-5.47l181.71-647.86a7.9 7.9 0 0 0-5.45-9.73zM728.83 655.87l-99.84-355.95 295.73 79.21-129.9 450.8-321.29-93.47 249.84-70.85a7.9 7.9 0 0 0 5.46-9.74zM33.1 173.99 527.86 33.76l167.8 609.83-490.57 139.46Zm769.56 806.1L288.5 834.29l13.82-49.27L444.9 744.6l353.12 102.74a7.79 7.79 0 0 0 6.02-.67 7.91 7.91 0 0 0 3.78-4.73L942.12 375.8a7.94 7.94 0 0 0-5.54-9.83l-312.56-83.71-10.9-38.87 366.99 104.07z"/><path d="M641.93 529.5 515.52 71.28a7.88 7.88 0 0 0-9.67-5.53L63.42 184.24a7.89 7.89 0 0 0-5.55 9.84l134.31 466.14a7.91 7.91 0 0 0 9.8 5.38l434.54-126.4a7.9 7.9 0 0 0 5.4-9.7zM214.04 631.19 90.41 206.2l403.7-110.37L611.3 513.5Z"/></svg>
