<svg xmlns="http://www.w3.org/2000/svg" xml:space="preserve" id="Шар_1" x="0" y="0" version="1.1" viewBox="0 0 1000 1000"><path fill="#17a2b8" d="m500 0 125 125 168.8-31.2L825 262.5l150 81.2L900 500l75 156.2-150 81.2-31.2 168.8L625 875l-125 125-125-125-168.8 31.2L175 737.5 25 656.2 100 500 25 343.8l150-81.2 31.2-168.8L375 125 500 0z"/><path d="M850.4 470.6c-37.7 28.5-83.7 20.7-83.7 20.7s68.7-89.6-3.9-241c0 0-51.8 190.3-187 287.1-31.1 22.3-69.7 52.4-75.3 110-6 61.4 33.7 124.4 137.1 131.8 82.6 6 144.6-62.9 198.1-145.7-48.7 18-96.3-4.1-96.3-4.1s93.8-38.2 111-158.8z" class="st1"/><path d="M149.6 470.6c37.7 28.5 83.6 20.7 83.6 20.7s-68.7-89.6 3.9-241c0 0 51.8 190.3 187 287.1 31.1 22.3 69.7 52.4 75.3 110 6 61.4-33.7 124.4-137.1 131.8-82.6 6-144.6-62.9-198.1-145.7 48.7 18 96.3-4.1 96.3-4.1s-93.7-38.2-110.9-158.8z" class="st1"/></svg>
