<svg xmlns="http://www.w3.org/2000/svg" xml:space="preserve" viewBox="0 0 1000 1000"><path fill="#17a2b8" d="m500 0 125 125 168.8-31.2L825 262.5l150 81.2L900 500l75 156.2-150 81.2-31.2 168.8L625 875l-125 125-125-125-168.8 31.2L175 737.5 25 656.2 100 500 25 343.8l150-81.2 31.2-168.8L375 125 500 0z"/><path fill="#030304" d="M812.8 516.3a145.3 145.3 0 0 1-70.4 6.6 215 215 0 0 0 35.4-50c18.7-36.1 38-97 23.9-182.4l-3.7-22.7-8.6 21.3c-.5 1.1-47.9 115.5-144 156.1l-.7.3c-98.8 55.2-133 103.8-144.7 132.6-11.7-28.8-45.9-77.4-144.7-132.6l-.7-.3c-50-21.2-86.4-62.4-108.2-93.2-23.8-33.7-35.7-62.8-35.8-63l-8.6-21.3-3.7 22.7c-14.1 85.4 5.2 146.3 23.9 182.4a212.8 212.8 0 0 0 35.4 50c-15.3 2.2-43 3.9-70.4-6.6l-14.7-5.6 6.5 14.3a212.4 212.4 0 0 0 95 103 193.4 193.4 0 0 0 42.4 16.4c-14.6 9.2-41.5 22.5-72.8 20.2l-19.4-1.4 14.7 12.7L254 689c47.2 41.3 92 80.6 150.1 80.6 6.3 0 12.8-.5 19.4-1.4a97.8 97.8 0 0 0 67-40.6c4-5.7 7.1-11.2 9.5-16.1 2.3 4.9 5.4 10.4 9.5 16.1a97.5 97.5 0 0 0 67 40.6c6.7 1 13.2 1.4 19.5 1.4 58.2 0 103-39.2 150.1-80.6l15.1-13.2 14.7-12.7-19.4 1.4a124.3 124.3 0 0 1-72.8-20.2c10.5-2.7 25.5-7.6 42.4-16.4 29-15.2 68.9-45.4 95-103l6.5-14.3-14.8 5.7z"/></svg>
