<svg xmlns="http://www.w3.org/2000/svg" data-name="Layer 1" viewBox="0 0 348 841.9"><path fill="#034549" d="m248.3 304.3 19.3-12.5c20-12.2 39-25.6 55.4-42.4 7-7.2 7.5-8.2 2.5-18 0-.2-.2-.3-.3-.5a153.9 153.9 0 0 0-29.2-34c-6.4-6.2-31.1-32.8-37.6-39.5a36.7 36.7 0 0 0-22.7-11.8c-4.3-.5-8.7-1.4-12.4-4.4a40.7 40.7 0 0 0 9.2-26.5 54 54 0 0 0-4.2-18 201.7 201.7 0 0 1-9.5-33.6c-1.7-9-4.3-17.9-9.4-25.6-3.7-5.6-8.2-10.5-15.2-11.3a8 8 0 0 1-5.4-2.8 17.2 17.2 0 0 0-11.7-5.4A47.4 47.4 0 0 0 141 30.8a64.5 64.5 0 0 0-17.5 27.9c-3.7 10.6-8 21.2-15 30.4a94.2 94.2 0 0 0-10 15.4 20.2 20.2 0 0 0 1.7 22.3c3.2 4.3 3.4 4.5-.7 8.4-.6.6-12 10.5-17.7 14.4-13.6 9.4-7.1 27-7.7 27.8-8.3 11.6-16.9 23.2-25.1 35a156 156 0 0 0-22.3 44.4 6.9 6.9 0 0 0 1.7 7.4 73.3 73.3 0 0 0 6.4 5.8 245.8 245.8 0 0 0 54.8 33.6q8.6 3.8 17 8.2c3.6 1.8 4 3 3 7-1.7 6.3-3.5 12.7-5.4 19a9.5 9.5 0 0 0 .6 7.4 8 8 0 0 1 .6 5.4 21.3 21.3 0 0 0 .8 14.3 18.5 18.5 0 0 1 1.6 6.3 142.3 142.3 0 0 0 8.6 49c6.4 18 38 92.9 46.2 112.6.4.8.3 16.8-9.5 30-12 16.2-16.8 35.8-19.9 55.7a874.1 874.1 0 0 1-7.6 43.8 128.4 128.4 0 0 1-6.8 23.2 73.2 73.2 0 0 1-19.5 27.9 23.6 23.6 0 0 0-7.7 20.3c.7 8.8-.7 17.3-3.2 25.8-.8 3-1.7 6.2-2.8 9.3-.6 2-.7 3.6 1.6 4.4a10 10 0 0 0 1.5-3.4l.6-1.6 8-21.7c2.4 5.9 5 12.5 3.7 18.3-.9 3.8-4.3 13.4-5.2 17.2-1.7 7.1 1.6 13 6.6 16.8 8.3 6.5 18 9.1 28 10.8 4.3.7 8.5-3.6 7.5-7.7a51.4 51.4 0 0 0-4.7-12.2 43.1 43.1 0 0 1-6.3-21.8c.2-6 .4-12 1.2-18 1.4-9.9 2.3-20 5.2-29.4 1.8-6 10.9-28 13-32.9l31.2-69a7.7 7.7 0 0 0 .4-4l-2-12c2.5 12.7 5.5 25.3 10.4 37.2 10.2 24.9 20.7 49.6 31.1 74.3a79.5 79.5 0 0 1 8 32.9c-.1 3 1.5 5.9 2.1 8.8.7 3.2 1.5 19.7 1.7 24.8.4 10.5 1.3 21 1.7 31.6a11.5 11.5 0 0 0 3 7.6 53 53 0 0 0 25.5 14.7c4.4 1.3 7.5.2 10.1-3.6 5.6-7.8 7.4-15.7 2.3-24.6a43.2 43.2 0 0 1-4.3-11.2c-2-8-11.8-47.8-15.6-59.4-2-6-5.2-11.8-7.6-17.8a203.3 203.3 0 0 1-11-49c-1.6-11.8-2.7-23.7-4.2-35.5a200.8 200.8 0 0 0-12.7-48.9 69 69 0 0 1-5.3-29.7c.4-6.2-2.3-25.8-1.6-29 4.7-21 42.2-111.6 46-139.2a110 110 0 0 0 0-31.9c-.1-.8-.1-2.1.4-2.5 2.5-2 1.6-4.3 1-6.6-.7-3.4-1.6-6.8-2.2-10.3-.5-3.2-.1-6.6-1.1-9.6a137.7 137.7 0 0 0-6.6-15.8c-1.2-2.5-1-4.1 1.3-5.6zM226 128.1c3.4-10.5 1.1-20.8-1-31 4.1 10.1 6.2 20.4 1 31zM104.7 102a27.6 27.6 0 0 0-.1 24.4c-6.6-7.4-6.5-16 0-24.4Zm21 193-.9 6.2a237.5 237.5 0 0 1-65.3-50 240.4 240.4 0 0 1 37.7-48.1l-3.4 7.8a46.6 46.6 0 0 0-1.5 4.5c-2 7.3-.4 14 4.3 20 1.4 1.8 3 3.6 3.8 5.6.7 1.8 1.2 4.5.2 5.8-.9 1.2-3.6 1.1-5.6 1.5a5 5 0 0 1-1.5-.3c3.1 5 12.3 5.6 15.3.8a8.6 8.6 0 0 0 .8-5.9c-.6-2.7-2.2-5.2-3.3-7.8a16 16 0 0 1-1.5-7.2 7.5 7.5 0 0 1 .5-2.6c2.2 5.1 3.4 11.7 7.1 16.2 6.3 7.6 8 16.6 10.2 25.6a85.5 85.5 0 0 1 3.1 27.9zm74.7 204.3-3.2-14.6h.6L201 499zm32-206.6-11-12.9c-3.2-4-3.5-8.8-2.9-13.8 1.8-13.6 7-26.1 11-39 2-6.8 4.7-17.3 12.1-28.2 1.4-2 3.5-2 5.5-.5 5.4 4 11 7.9 16.2 12l27.1 22.4c1.4 1 2.6 2.3 3.7 3.4-17.2 22.7-38 41-61.7 56.6z"/></svg>
