<svg xmlns="http://www.w3.org/2000/svg" viewBox="0 0 400 1240">
    <path fill="#014548"
          d="M89 2c-7 0-16 3-21 8-9 2-27 19-25 24 1 4 1 5-4 11-18 26-16 54-13 79-2 30 24 65 16 88 1 4 3 6 5 9l-4 8c-10 45-33 90-41 126-3 13-2 22 1 28 27 42 34 46 69 81l-3 12c0 3 6 16 9 17 2 0 5-1 5-5h4c-29 97 27 203 51 291-5 21-10 40-12 56-5 38-25 70-28 104-7 56-22 109-42 161-10 12-12 21-13 47 4 26-18 52-14 70 14 21 38 29 57 18 12-4-1-79 8-115 12-55 47-118 71-160 21 68 33 144 16 206-8 49 22 40 57 19 6-26-6-48-1-76 4-16-2-38-10-49-7-41-9-83-7-125 1-64-17-96-6-145 41-82 87-175 103-260-1-15-2-14 1-26 4-18 4-36 4-53-4-45 23-79 46-108 11-15 20-32 28-50 5-8 5-16 3-21-3-4-19-22-28-30-26-21-62-43-76-62-33-34-43-39-62-35-5 2-6 2-7 0 4-6 0-3-7-16 1-7-5-18-9-24-4-4-11-13-13-20-7-9-10-22-22-29-1-3-3-6-4-5-12-8-34-38-43-38-4-1-29-19-39-11zm195 231c20 19 42 36 66 50l-3 8-23 53c-9 24-21 46-34 67-1 7-3 1-3-12l2-35c2-26 2-31 1-52l-4-57c-3-6-4-14-5-22-1-3 0-2 3 0zM82 295c-15 29 4 58 29 58 17 8 32 48 27 61-8 10-16 23-23 27-6 3-3-2-16-1-24-24-39-50-58-73 13-15 27-59 35-86 8 12 11 5 6 14z"/>
</svg>
