<svg xmlns="http://www.w3.org/2000/svg" viewBox="0 0 400 1240">
    <path fill="#014548"
          d="M129 0c-8 2-15 9-18 16l-5 5c-7 2-12 7-16 13-25 55-41 104-48 158-1 19 3-4 11-6 20 9 5 85 39 91-3-3-6-8-6-12 0-3-2-9-4-9-4-8 8-17 9-23 4-5 1 47 5 55 7-4 6-23 10-3l2 65v56c-8 40-25 82-25 125L64 633c-3 12-21 33-21 43-1 1 0 2 2 5 6 4 15 17 18 15h5c3 7 10 1 13 4 4 3 3-5 7 0-10 23-54 14-67 27-5 6-14 34-18 56-2 17-6 16 3 26 2-1 4-6 7-3 0 2 2 4 4 4 2 1 3-21 23-26 46-10 84-16 126-1 1 14 2 32 0 42-7 35-8 57-1 115-8 49 18 100 16 142a315 315 0 01-5 110c-4 29 19 47 45 48 42-14-3-148-4-198 5-47 8-95 9-142-2-31-1-53 5-82 72 40 184 99 161-34-16-47-8-110-40-150-5-9 11 5 13-1 1-4 5 1 6-2 3-1-18-32-13-34 3-3 13 29 18 28 6 2-15-98-2-131 13-42 22-86 26-129 1-42-9-95-21-143-7-24-11-72-33-85-26-6-53 8-77 8 6-15 7-25-9-24-10-10 9-16 10-25-9-1-15-12-16-15-7 1-10 6-15 10-5-11-3-9-12-13-10-41-66-82-98-78zm82 410c-19 37-52 63-63 96-8 18-10 30-10 59 3 71 12 101 23 164-6-3-16-8-18-14-3-13-8-23-15-27-7-7-36-2-36-5l-3-12c-3-12-3-18 0-26 5-13 6-18 7-30 0-9 2-15 3-19 9-26 20-53 28-70 22-50 23-52 28-109l4-35c3-22 5-41 5-63 25 22 57 56 47 91zm80 356c-2-11-57-15-58-19 6-46 8-94 8-133 4 59 57 123 50 152z"/>
</svg>
