<svg id="Layer_1" data-name="Layer 1" xmlns="http://www.w3.org/2000/svg" viewBox="0 0 347.98 841.89"><title>girl</title><path d="M327.33,488.65a72.38,72.38,0,0,0-7.41-13.26c-14.25-20.13-33.69-35.06-51.87-51.25-16-14.23-32.22-28.17-48.13-42.47-1.41-1.26-.23-11.73-1.11-23.66-.81-11-3.79-23.3-2.72-29.05,4.72-25.46,11.22-47.37,14.89-62.49A160.84,160.84,0,0,0,234.92,245s8-7.71,11.12-17.4c5.24-16.1-4.95-25.68-10.66-33.68a124.14,124.14,0,0,1-8.46-13.26,74.7,74.7,0,0,0,5.89-8.52c9.46-16.48,19-33,27.32-50.05,10.15-20.87,14.78-43.49,18.16-66.34,1.54-10.41-.86-15.15-11.09-18-16.88-4.76-33.89-9.16-51-12.82-12.81-2.74-25.9-4.13-38.88-6.1,0,0-4-3.08-7.2-3.75-9.44-2-18.86-4.14-28.32-6.05-8.48-1.7-16.2,1.52-23.88,5a26.52,26.52,0,0,0-5.69,3.53c-.4,1,.61,1.16,1,1.18h0c.18,0,.13,0,0,0-10.26,10-15.6,23.05-21.42,35.6-2.88,6.22-5.1,14.51-3.41,20.72,3.58,13.14.12,24.1-5.6,35.22-5.25,10.21-4.93,20.39.55,30.36,3.56,6.46,3.88,12.67,0,19.15a22.26,22.26,0,0,0-2.47,18.33c1.27,4.21.13,6.71-3.74,8.73C69,191.13,65.49,197.94,66,207.23c.87,15.65,1.35,31.32,1.89,47,.67,19.44,2.67,39-2.09,58.19-5.4,21.83-7.53,44-8.7,66.44-.84,16-3.26,52.66-3.32,54.54a20.12,20.12,0,0,1-.7,4.83,130.07,130.07,0,0,1-4.35,13.17,37.2,37.2,0,0,0-2.75,8.5,6.76,6.76,0,0,0,.31,3.51c1.36,3.39,2.25,14.36,3.52,19.16a8.71,8.71,0,0,0,1.51,3.62c.78.93,9.13,11.57,9.89,12.52.49.61,1.22,1,1.49,1.81a28.65,28.65,0,0,0,4.13,5.29.91.91,0,0,0,1.15.12,12.73,12.73,0,0,0,1-2.38,4.81,4.81,0,0,0,.09-3.72A14.32,14.32,0,0,0,66.22,495c-.72-.75-1.5-1.45-2.26-2.18-.16.08-.39.22-.29-.11a2.07,2.07,0,0,0-.4-1.76A28.3,28.3,0,0,0,58,485.59a7.71,7.71,0,0,1-2.91-4c-.89-3.31-1.81-6.61-2.64-9.93a38.33,38.33,0,0,0-2.53-7.53,8.44,8.44,0,0,1-1-3.1,2.42,2.42,0,0,1,.22-1.37,4.93,4.93,0,0,0,.46,3c.65,1.41,1.39,2.8,1.92,4.26s.69,2.74,1.07,4.1c.89,3.21,1.82,6.4,2.71,9.61a8.42,8.42,0,0,0,2.91,4.69c.65.49,5.07,4,6.66,5.19l4.31,3.34c.36.28,3.65,3.59,5.53,4.5.49.24.83,0,.8-.59a2.87,2.87,0,0,0-.14-.54,2.76,2.76,0,0,0,.71-1.88,6.38,6.38,0,0,0-1.91-4.83c-1-1.1-4.71-4-5.54-5.18s-1.83-2.64-2.81-3.91c-.75-1-1.61-1.83-2.43-2.76-.34.33-.06-.35-.14-.95-.14-1.13-.24-2.26-.45-3.37-.34-1.7-.79-3.38-1.13-5.08-.13-.62-.27-.94-.39-1,.12,0,.28-.21.62-1a29,29,0,0,0,1.5-5.39,11,11,0,0,0-.12-1.51,5,5,0,0,1,.68.3c.58-.53,3.14-3,3.83-3.6a1.44,1.44,0,0,0,.46-1c0-.47.54-6.31.6-6.93a.73.73,0,0,1,.07.4c-.07,1.44-.18,2.87-.21,4.3,0,1.66-.09,3.31,0,5a40.59,40.59,0,0,1-.58,9c-.22,1.59-.53,3.17-.65,4.77s0,3.21,0,4.82a12.92,12.92,0,0,0,2.38,6.85s1.17,1.91,2.45,1.68A2.24,2.24,0,0,0,74,484.77c2.09-3.42,2.16-8.06,2.41-10.43.21-2.07.66-10.13.83-12.08a34,34,0,0,1,.61-4.25,67.28,67.28,0,0,0,1.46-9.78,30.67,30.67,0,0,0-.49-8,38,38,0,0,0-3-9.25c-1.34-2.8-2.47-5.71-2.33-8.81.36-7.6,4.39-23.9,7.37-35.08,6.69-25.09,15.09-49.72,17-75.93,1.72-23.65,3.65-65.43,10.77-88.92,15.21,15,28.38,29.18,36,47.64,7,17.17,4.23,32.51-7.68,46.7a216,216,0,0,0-17.28,23.52c-10.11,16-13.3,33.42-9.06,52.21,3.88,17.18,15.32,28.38,28.88,37.9,4.16,2.92,5.55,6.05,5.52,10.94-.16,26.71.56,53.45-.2,80.14-.5,17.83-3,35.6-4.62,54.32-4.49-1-8-1.06-10.91-2.44-9.21-4.38-17.11-2.64-25.65,2.54-11.87,7.2-24.54,13.1-36.88,19.51-2.33,1.21-4.77,2.21-7.16,3.3.11.84.21,1.68.32,2.53,1.92.05,4,.63,5.75.07,8.42-2.73,16.63-6.19,25.16-8.48a12.62,12.62,0,0,1,9.74,2c1.33,1,.59,5.88-.41,8.55-3.88,10.34-10.83,18.59-18.85,26-6.57,6.06-9.58,13.42-7.5,22.31,3.54,15.13,12.21,27.28,23,38,3.13,3.09,6.41,2.12,7.73-2.23a14,14,0,0,0,.42-6.79c-2.88-13.31,0-24.54,10.7-33.61,6-5.05,11.41-10.79,16.48-15.64,2.17,19.79,5.3,39,6.12,58.36.5,11.62.88,28.92-.53,41.78L135,740.62a50.1,50.1,0,0,1-11,16.86c-3,3.12-5.07,10-3.84,14,4.84,15.65,6.19,31.5,5.9,47.66-.08,4.68,1.87,6,6.33,4.26.09-1.59.19-3,.24-4.5.3-8.67.23-17.37,1-26,.5-5.65,3.58-7,8.25-4,3,1.92,6.09,4.28,7.87,7.22,4.37,7.2,7.88,14.91,12,22.27,1.23,2.18,3.36,5.44,5.13,5.48,18.14.41,36.28.25,54.42.25l.92-1.73c-2.2-1.89-4.14-4.34-6.68-5.53-4-1.86-8.37-2.86-12.58-4.22-6.39-2.07-12.76-4.68-15.23-11.4-4.33-11.7-7.15-19.62-11.8-35.56s-2.51-34.3-2.51-34.3c.49-16.55,1.93-33.12,3.41-49.63,2.49-27.81,5.92-55.54,8.73-83.32.51-5.06,2.89-7.8,7.35-9.88,18.6-8.65,37.36-17,55.53-26.53q34.3-17.93,67.71-37.54C330.73,515.93,334,504.11,327.33,488.65ZM85.13,134.46c-4.22-7.3-3.87-13.94,1.41-21C86.08,120.33,85.56,128,85.13,134.46Zm111.3-6.05c1.42-6.13,3.91-12,6.14-17.94a33.94,33.94,0,0,0-.9-27c-6.34-14.16-12.07-28.58-18.06-42.89l1.52-1.17c1.81.74,3.65,1.41,5.42,2.23,15.91,7.36,31.76,14.86,47.73,22.07,5.38,2.44,7.16,5.44,4.83,11.34-10.6,26.86-23.28,52.38-44.58,73C194.37,141.75,194.92,134.94,196.43,128.41Zm64,368.89c-22.36,9.72-43.07,21.76-59.12,40.85,5.27-21.5,10.54-43,16.11-65.76l43.5,23Z" fill="#034549"/><path d="M67,492.25c-.45-.31-.87-.67-1.33-1-.88-.55-1.77-1.06-2.72-1.61a6.76,6.76,0,0,1,.67,1.2,6,6,0,0,0,2,2.85l.06.06a16.82,16.82,0,0,1,2.42,3.46,12.51,12.51,0,0,0-.18-3.58A2.12,2.12,0,0,0,67,492.25Z" fill="#034549"/></svg>