<svg id="Layer_1" data-name="Layer 1" xmlns="http://www.w3.org/2000/svg" viewBox="0 0 347.98 841.89"><title>girl</title><path d="M124.34,194.83c.23-4.56-14.36-30.24-17.75-37.11C93,130.12,82.26,101.24,76.07,70.39c-1.29-6.42-2.81-12.9-1.4-19.64.68-3.28,2-5.79,5.06-6.7,9.84-2.94,19.58-6.49,29.56-8.56,14.12-2.93,28.44-4.6,42.64-7.08a80.79,80.79,0,0,0,24.12-8.47c7-3.75,14-4.7,21.2-.36,1.72,1,4,.87,6,1.44a9.64,9.64,0,0,1,2.4,1.47c3.54,2.41,6.92,5.19,10.64,7.16A23.64,23.64,0,0,1,226.3,39.92a106.78,106.78,0,0,0,6.54,11.13c4.26,6.14,10.68,7.82,17,9.24,13.61,3.05,27.32,5.54,40.87,8.89,14.08,3.48,27.36,9.63,40.07,17.24,4.38,2.62,5.44,5.87,4.32,11.39-1.87,9.16-6.55,16.65-11.68,23.69-8.09,11.11-16.5,21.93-24.93,32.72-8.25,10.56-35.82,33.08-39.35,36.42-5.11,4.84-6.73,11-4.82,18.14,1.18,4.41,2.69,8.71,4,13.07A3.56,3.56,0,0,1,258,224l-6.11-8.91c.55,4.15,5.45,16.73,7.37,20l-8.79-5.73c-1.59,12.26-6.08,20.73-12,20.76,1.54-3.88,4.11-12.25,3.81-12.44L241,239.59c-8.78,13.61-10.66,29.1-9.64,45.29A23.1,23.1,0,0,0,237,298.37c14.2,17,26.11,35.71,34.08,57.39,5.8,15.77,8.88,32.19,7.37,49.11-1.29,14.56-3.64,29.06-6.35,43.38-4.29,22.68-15.67,84.22-16.27,92.47-.56,7.66-1.2,15.37-1,23,.16,8,1.4,15.86,1.86,23.82.54,9.21,1.39,18.48,1,27.66-1.7,36.2-9.91,71.1-17.44,106.13a63.42,63.42,0,0,0-1.08,13.52,127.94,127.94,0,0,1-1.34,19.45c-.83,5.74-.39,11.76-.16,17.64.33,8.83,1.76,37.48,2.1,43,.26,4.2-12.25,16.18-16.8,18.17-5.53,2.43-11.7-1.12-16-7.45-2.91-4.27-2.64-9-2.18-13.7,1.06-10.69,2.8-21.3,3.58-32,.41-5.61-.3-22.74.19-25.55.53-7.27,4.94-18.12,5.44-21.6,1.08-7.56,2.25-15.23,2.19-22.84-.11-15.9-1-31.79-1.57-47.69-.52-14.22-1.44-28.45-1.48-42.67,0-8.14,1.11-16.34,2.19-24.43,1.8-13.44,1.29-26.55-2.49-39.57-2-6.92-2.21-57.1-2.65-63-.79-10.74-4.91-54.29-4.41-65.44.14-3.07.59-6.12.93-9.44-4.7,1.72-6.45,5.86-7.64,10.4-1.87,7.11-3.4,14.34-5.45,21.38-5,17-12.33,32.89-19.73,48.7-9.21,19.69-17.11,39.92-22.06,61.55-1.1,4.81-3.44,9.34-5.65,13.73-3.79,7.55-5.38,15.63-6.31,24.17-2,18.08-5.09,35.86-12.64,52.33-10.24,22.33-33.87,76.74-35.61,81.52-2.26,6.21-1.52,12.08,1.4,17.83,2.29,4.52,4.22,9.3,4,14.63a15.46,15.46,0,0,1-1.79,7c-3.77,6.18-4.92,13.19-5.28,20.3-.41,8.28-.1,16.6-.1,24.73-4.06,1-4.35.82-4.38-3-.07-9.16,0-18.33,0-27.49a8.43,8.43,0,0,0-.5-3.34,36.43,36.43,0,0,0-2.85,4.65c-3.25,7.45-5.84,15.13-6.2,23.57-.14,3.4-.64,6.79-1.07,10.17a7.83,7.83,0,0,1-5.24,6.84c-8.06,3.23-16.4,3.95-24.85,3.79a68.41,68.41,0,0,1-8.56-.78c-3.69-.55-5-3.2-3.06-6.85a35,35,0,0,1,5.26-8C46.15,807.16,50,797,50.9,784.83c1.45-19,6.35-37.15,11.72-55.23,3.93-13.24,6.49-27,9.25-40.67,6.13-30.35,11.91-60.79,21.77-90,2.83-8.38,6.25-16.57,8.39-25.16,2-8,7.07-42.88,8.53-52,.53-3.35,2.49-34.83,3.69-47.08a316.61,316.61,0,0,1,10.13-54.76c2.59-9.22,5.9-18.2,9.14-27.17a54.37,54.37,0,0,0,3-16.59c.57-14.74,3.24-29.09,6.29-43.39A193,193,0,0,0,146,313c.74-7.11-2.29-13.47-4-20.09-3-11.46-5.8-23-8.6-34.5-.62-2.57-.31-14.27-3.21-16.54C117.36,221.09,124,202.46,124.34,194.83Zm168.76-85.3c-17.53-13.07-35.85-24.16-56.45-31,.31,1.08.47,1.65.64,2.21a64.25,64.25,0,0,1,2.94,25,25,25,0,0,0,2.43,14,33.6,33.6,0,0,1,3.2,18.26c-.15,1.95,0,3.92,0,6.46,7.9-3.9,16-6.64,22.62-12.48C276.74,124.73,284.8,117.13,293.1,109.53Zm-186-36.07c.42,1.1,10,23.11,14.22,33.36,3.49,8.35,8.93,14.83,15.46,21.41a34.61,34.61,0,0,1-1.56-4.67c-.57-3.32-1.49-6.73-1.28-10a33,33,0,0,1,6.23-17c4.41-6.32,8.15-13,9.71-21a98.37,98.37,0,0,1,9.38-26.66c.37-.71.67-1.46,1.14-2.48C141.4,52.92,124.33,63,107.11,73.46ZM235.84,123.1c2,7.79,4.74,15.44,2.56,23.44,3.62.92,3.38-1.72,3.73-4C243.32,134.7,240.79,128.45,235.84,123.1Zm-93.29,10.5c-1.08-7.37-2.06-14-3-20.67A40.3,40.3,0,0,0,142.55,133.6Z" fill="#034549"/></svg>