<svg xmlns="http://www.w3.org/2000/svg" viewBox="0 0 1000 378.2"><path d="M826 35.9h141.3v7.9H826zM37.2 35.9h141.3v7.9H37.2zM318.4 95h-7.7l-11.6-22.5H240l-11.6 22.4h-7.7L269.6 0l48.8 95Zm-74.9-29.4h52.1l-26-50.6-26.1 50.6ZM416.7 55.6a46.2 46.2 0 0 1-14 28.7c-9.4 9.4-20.8 14.1-34 14.1s-24.8-4.7-34.2-14.2a46.3 46.3 0 0 1-14.2-34A46 46 0 0 1 334.4 16c9.5-9.5 20.9-14.3 34.2-14.3s24.7 4.8 34.1 14.3c7 7 11.4 15 13.3 24.1h-7.1a40.4 40.4 0 0 0-11-19.3c-8-8-17.8-12.1-29.3-12.1s-21.2 4-29.3 12a39.3 39.3 0 0 0-12 29.4 40 40 0 0 0 12 29.3c8.1 8 17.9 12 29.3 12s21.2-4 29.3-12c5-5.1 8.5-10.8 10.4-17h-33.5v-7h41.9ZM436.5 54.6V88h64.2v7h-71.2V5h71.2v7h-64.2v35.8h59.8v6.8h-59.8ZM584.5 79.7V5.2h7v93l-68.2-78V95h-6.9V1.8l68.1 78ZM652.6 91.6c9.6 0 18.2-3 25.7-9A40 40 0 0 0 692.8 60h7a47.1 47.1 0 0 1-16.5 27.5 47 47 0 0 1-30.7 11 46.5 46.5 0 0 1-34.1-14.2c-9.5-9.4-14.2-20.8-14.2-34.1S609 25.5 618.5 16a46.6 46.6 0 0 1 34.1-14.2c11.5 0 21.8 3.6 30.7 11a47.2 47.2 0 0 1 16.6 27.4h-7.1a40 40 0 0 0-14.5-22.5c-7.5-6-16.1-9-25.7-9-11.4 0-21.2 4-29.3 12.1-8 8-12 17.8-12 29.3s4 21.2 12 29.2c8.1 8.1 17.9 12.2 29.3 12.2ZM743.8 61.6l33.6-56.4h7.8L747.3 70v25h-7V70l-38-64.8h7.9l33.6 56.3ZM216.3 171 108 377 0 171h17.1l91 172.7 91.1-172.6h17.1ZM256 280.5v73.8H398v15.3H240.6V170.8h157.5v15.3H256v79.2h132.5v15.2H255.9ZM583.5 336V171h15.3v205.7L448.1 204.3v165.4H433V163.4L583.5 336ZM817 171v115.5c0 25.3-9 46.9-26.9 64.9-18 17.9-39.6 26.8-64.8 26.8s-47-9-64.9-26.8a88.7 88.7 0 0 1-26.8-65V171.2h15.3v115.4c0 21 7.4 39.1 22.3 54 15 15 33 22.4 54.1 22.4s39-7.5 54-22.4c15-14.9 22.5-33 22.5-54V171h15.1ZM868 354.7a74.4 74.4 0 0 1-22.6-54.6h15.3c0 17.1 6 31.7 18.2 43.8 12 12.1 26.7 18.2 43.8 18.2s31.7-6.1 43.8-18.2c12.1-12 18.2-26.7 18.2-43.8s-6.2-30.8-18.6-41.6c-5-4.3-11.2-8.4-19-12.5a185 185 0 0 0-10.5-5.3l-10.8-4.8a161 161 0 0 1-30-16c-8.7-6.8-13.1-14.8-13.1-24s3.4-17.4 10.3-24c7-6.6 15.3-9.9 25-9.9 10.6 0 19 2.9 25.6 8.5a28.8 28.8 0 0 1 6.8 8.8l.1.1v.2l-14 5.8-.1-.1-.2-.3-.7-1c-.7-1-1.7-2-3-2.8a24.6 24.6 0 0 0-14.5-3.9c-5.1 0-9.6 1.8-13.6 5.2-4.4 3.6-6.5 8-6.5 13.3 0 4.7 3 9.1 9.1 13.4a170 170 0 0 0 25 12.8l5.5 2.3 5.7 2.7c4.2 2 8 4 11.5 5.8a115 115 0 0 1 22.1 15 67 67 0 0 1 23.2 52.3c0 21-7.5 39.5-22.7 54.6-15 15.1-33.3 22.7-54.6 22.7s-39.5-7.6-54.6-22.7Z"/></svg>
